<?xml version="1.0" standalone="no"?>
<!DOCTYPE svg PUBLIC "-//W3C//DTD SVG 20010904//EN"
 "http://www.w3.org/TR/2001/REC-SVG-20010904/DTD/svg10.dtd">
<svg version="1.0" xmlns="http://www.w3.org/2000/svg"
 width="955.000000pt" height="340.000000pt" viewBox="0 0 955.000000 340.000000"
 preserveAspectRatio="xMidYMid meet">
<metadata>
Created by potrace 1.16, written by Peter Selinger 2001-2019
</metadata>
<g transform="translate(0.000000,340.000000) scale(0.100000,-0.100000)"
fill="#000000" stroke="none">
<path d="M0 1700 l0 -1700 4775 0 4775 0 0 1700 0 1700 -4775 0 -4775 0 0
-1700z m1968 773 l-3 -758 -152 -3 -153 -3 0 761 0 760 155 0 155 0 -2 -757z
m452 351 l0 -407 148 154 c81 85 170 178 197 206 l50 53 198 1 c109 1 200 0
202 -3 3 -3 -57 -63 -132 -134 -75 -71 -173 -163 -217 -205 l-80 -76 78 -119
c43 -66 145 -221 227 -346 82 -126 149 -230 149 -233 0 -3 -88 -4 -196 -3
l-197 3 -119 190 c-65 105 -132 212 -149 239 l-31 49 -64 -64 -64 -63 -2 -175
-3 -176 -157 -3 -158 -3 0 761 0 760 160 0 160 0 0 -406z m-1296 26 c172 -44
275 -121 358 -267 38 -67 57 -150 65 -275 l6 -108 -451 0 c-248 0 -453 -4
-456 -8 -3 -5 1 -34 8 -66 19 -80 61 -134 132 -171 53 -28 65 -30 163 -30 97
0 110 2 152 27 25 15 58 43 73 63 l27 35 160 0 c185 0 186 -1 145 -83 -68
-134 -211 -235 -386 -272 -275 -58 -583 37 -712 219 -89 126 -121 349 -76 536
15 63 71 178 109 223 67 80 190 153 308 182 88 21 283 19 375 -5z m3070 5 c79
-17 151 -59 201 -119 l35 -41 0 73 0 72 165 0 165 0 0 -582 c0 -631 -3 -665
-55 -767 -34 -68 -93 -124 -169 -161 -131 -63 -134 -64 -668 -68 l-488 -3 0
-115 0 -114 315 0 315 0 0 -105 0 -105 -315 0 -315 0 0 -145 0 -145 358 -2
357 -3 0 -105 0 -105 -492 -3 -493 -2 0 584 0 583 80 7 c45 4 302 7 573 5 549
-2 546 -2 606 67 39 44 51 87 58 209 l5 100 -48 -46 c-83 -80 -165 -109 -304
-109 -147 0 -274 48 -365 137 -99 98 -145 215 -152 388 -6 150 11 238 68 354
66 134 163 220 289 255 103 28 178 31 274 11z m1411 -140 l0 -150 -110 -5
c-95 -5 -117 -9 -160 -33 -53 -29 -88 -71 -107 -128 -7 -22 -13 -154 -15 -362
l-5 -327 -161 2 -162 3 -3 563 -2 562 161 0 160 0 -3 -85 c-2 -47 0 -85 3 -85
4 0 19 17 35 38 83 110 188 163 319 159 l50 -2 0 -150z m850 140 c186 -35 318
-140 400 -317 43 -94 59 -185 53 -307 -14 -276 -191 -487 -451 -536 -100 -19
-281 -19 -372 0 -85 18 -194 70 -254 122 -59 50 -136 170 -162 252 -30 92 -37
262 -15 355 51 217 218 386 426 430 87 19 280 20 375 1z m2410 -18 c232 -76
354 -250 371 -528 l7 -109 -451 0 c-248 0 -453 -3 -455 -7 -9 -17 20 -123 43
-156 31 -45 103 -93 163 -108 29 -7 81 -10 128 -6 91 6 148 33 193 92 l27 35
165 0 c188 0 183 3 137 -87 -62 -123 -219 -235 -378 -268 -164 -34 -384 -11
-516 56 -204 102 -292 254 -293 509 0 135 14 208 59 307 44 97 133 185 237
236 111 55 177 67 343 63 118 -3 153 -8 220 -29z m-1541 -379 c66 -211 124
-394 129 -408 10 -25 10 -24 22 15 18 57 213 670 231 728 l16 47 175 0 c162 0
175 -1 170 -17 -4 -16 -289 -736 -399 -1010 l-41 -103 -172 0 -172 0 -116 293
c-246 620 -327 827 -327 832 0 3 82 5 183 5 l182 0 119 -382z m-1989 -981
c147 -2 152 -3 223 -36 85 -40 140 -95 168 -167 15 -39 19 -75 19 -174 0 -109
-3 -131 -23 -175 -27 -59 -62 -98 -118 -131 -81 -47 -127 -56 -346 -61 l-208
-5 0 -210 0 -209 -122 3 -123 3 0 540 c0 503 1 542 18 573 28 51 56 58 218 55
79 -2 212 -4 294 -6z m-4230 -11 c159 -42 239 -137 239 -287 1 -97 -28 -157
-97 -205 l-48 -33 38 -20 c100 -51 148 -133 148 -256 0 -67 -5 -89 -27 -135
-32 -65 -96 -133 -152 -162 -89 -46 -131 -51 -518 -55 l-368 -5 0 586 0 586
368 0 c274 0 380 -4 417 -14z m655 -571 l0 -585 -135 0 -135 0 0 585 0 585
135 0 135 0 0 -585z m430 355 c0 -126 3 -230 8 -230 4 1 113 104 242 230 l235
229 180 1 180 0 -35 -32 c-19 -17 -58 -52 -85 -77 -28 -25 -93 -84 -145 -131
-179 -162 -255 -232 -257 -238 -2 -4 46 -66 105 -138 59 -72 159 -196 222
-275 63 -78 139 -171 168 -206 28 -34 52 -65 52 -68 0 -3 -78 -5 -174 -5
l-173 0 -79 102 c-121 159 -312 399 -318 401 -3 1 -32 -22 -65 -51 l-61 -53
-2 -197 -3 -197 -135 0 -135 0 -3 583 -2 582 140 0 140 0 0 -230z m4167 198
c6 -18 33 -89 61 -158 27 -69 122 -312 212 -540 89 -228 164 -421 167 -427 4
-10 -29 -13 -145 -13 l-150 0 -13 38 c-6 20 -25 74 -41 119 l-30 83 -237 0
-237 0 -43 -120 -43 -120 -139 0 c-153 0 -152 0 -124 62 8 18 71 177 140 353
69 176 165 418 212 538 l86 217 157 0 157 0 10 -32z m1316 18 c155 -36 273
-198 253 -347 -14 -101 -75 -196 -149 -229 l-37 -17 48 -30 c79 -49 95 -94
103 -283 6 -165 10 -185 40 -201 11 -5 19 -19 19 -30 0 -19 -6 -19 -152 -17
l-152 3 -8 30 c-5 17 -13 95 -17 175 -8 156 -17 189 -64 224 -26 19 -44 21
-208 24 l-179 4 -2 -229 -3 -228 -135 0 -135 0 -3 583 -2 582 362 0 c271 0
378 -4 421 -14z m689 -220 l3 -234 240 234 240 233 180 0 180 1 -40 -36 c-49
-45 -202 -183 -270 -245 -47 -42 -81 -73 -179 -161 l-40 -35 120 -148 c65 -81
152 -188 193 -239 41 -50 111 -137 157 -193 46 -56 84 -104 84 -107 0 -3 -78
-6 -173 -6 l-174 0 -194 250 c-107 137 -199 250 -204 250 -6 0 -36 -24 -68
-52 l-57 -53 -3 -195 -2 -195 -135 0 -135 0 -3 583 -2 582 140 0 140 0 2 -234z"/>
<path d="M851 2620 c-88 -19 -150 -70 -185 -154 -29 -70 -45 -66 263 -66 l279
0 -9 42 c-6 23 -17 54 -26 69 -20 33 -84 81 -131 97 -48 16 -141 22 -191 12z"/>
<path d="M4095 2601 c-16 -4 -43 -15 -60 -23 -136 -71 -179 -345 -82 -511 45
-76 108 -107 216 -107 109 1 190 52 234 149 17 38 21 67 21 161 1 174 -36 258
-138 309 -51 25 -141 35 -191 22z"/>
<path d="M6203 2620 c-60 -13 -94 -33 -140 -83 -60 -65 -78 -128 -77 -267 0
-96 4 -124 23 -170 46 -113 135 -173 256 -173 105 0 149 16 210 77 71 71 89
126 89 271 0 88 -5 122 -22 170 -25 69 -79 129 -139 156 -49 23 -142 31 -200
19z"/>
<path d="M8543 2620 c-101 -20 -177 -92 -198 -187 l-7 -33 280 0 280 0 -10 43
c-21 95 -91 155 -209 177 -59 11 -77 11 -136 0z"/>
<path d="M5050 1111 l0 -171 153 0 c139 0 157 2 197 23 56 28 80 72 80 147 0
72 -24 118 -75 144 -34 18 -62 21 -197 25 l-158 3 0 -171z"/>
<path d="M590 1149 l0 -131 193 4 c209 4 251 14 282 62 26 39 17 128 -16 155
-35 29 -125 41 -302 41 l-157 0 0 -131z"/>
<path d="M590 675 l0 -156 203 3 c175 3 207 6 241 22 72 36 98 153 50 219 -37
50 -81 60 -296 65 l-198 4 0 -157z"/>
<path d="M6132 1063 c-28 -76 -65 -175 -81 -220 l-30 -83 159 0 c88 0 160 2
160 5 0 8 -141 408 -150 423 -4 9 -27 -40 -58 -125z"/>
<path d="M7170 1125 l0 -155 183 0 c170 0 186 2 227 23 59 29 72 56 68 139 -3
58 -8 71 -32 97 -40 41 -92 51 -280 51 l-166 0 0 -155z"/>
</g>
</svg>
