<?xml version="1.0" standalone="no"?>
<!DOCTYPE svg PUBLIC "-//W3C//DTD SVG 20010904//EN"
 "http://www.w3.org/TR/2001/REC-SVG-20010904/DTD/svg10.dtd">
<svg version="1.0" xmlns="http://www.w3.org/2000/svg"
 width="930.000000pt" height="336.000000pt" viewBox="0 0 930.000000 336.000000"
 preserveAspectRatio="xMidYMid meet">

<g transform="translate(0.000000,336.000000) scale(0.100000,-0.100000)"
fill="#000000" stroke="none">
<path d="M0 1680 l0 -1680 4650 0 4650 0 0 1680 0 1680 -4650 0 -4650 0 0
-1680z m1838 713 l-3 -758 -152 -3 -153 -3 0 761 0 760 155 0 155 0 -2 -757z
m452 350 l1 -408 57 61 c31 33 120 127 196 207 l140 147 205 0 206 -1 -135
-127 c-74 -70 -172 -163 -219 -208 l-84 -81 37 -59 c21 -32 122 -187 226 -344
103 -157 185 -288 181 -293 -4 -4 -92 -6 -196 -5 l-188 3 -119 190 c-65 105
-133 212 -149 239 l-31 49 -64 -64 -64 -63 -2 -175 -3 -176 -157 -3 -158 -3 0
761 0 760 160 0 160 0 0 -407z m-1294 27 c154 -39 255 -109 335 -233 59 -92
88 -207 89 -354 l0 -63 -452 -2 -453 -3 3 -30 c9 -97 66 -179 150 -218 39 -18
65 -22 152 -22 97 0 109 2 152 28 26 15 59 43 74 62 l27 35 161 -2 161 -3 -2
-28 c-1 -16 -16 -51 -33 -77 -111 -173 -292 -260 -541 -260 -206 0 -372 61
-490 179 -106 107 -143 212 -143 406 -1 138 12 200 62 305 65 138 211 249 374
285 98 21 280 19 374 -5z m3048 10 c82 -13 142 -45 204 -107 l52 -54 0 71 0
70 165 0 165 0 0 -582 c0 -628 -3 -665 -53 -764 -50 -97 -150 -170 -292 -211
-52 -15 -122 -18 -547 -21 l-488 -3 0 -115 0 -114 315 0 315 0 0 -105 0 -105
-315 0 -315 0 0 -145 0 -145 358 -2 357 -3 0 -105 0 -105 -492 -3 -493 -2 0
584 0 583 80 7 c44 4 301 6 572 5 550 -2 547 -2 607 67 39 44 51 87 58 209 l5
100 -48 -46 c-63 -59 -89 -74 -160 -95 -82 -23 -255 -15 -339 16 -163 62 -272
195 -311 380 -24 112 -15 281 20 385 89 263 310 399 580 355z m1431 -145 l0
-150 -110 -6 c-124 -6 -170 -23 -223 -83 -52 -59 -55 -83 -59 -439 l-4 -327
-162 2 -162 3 -3 563 -2 562 161 0 160 0 -3 -85 c-2 -47 0 -85 3 -85 4 0 19
17 35 38 83 111 189 163 324 159 l45 -2 0 -150z m853 140 c189 -39 315 -140
398 -319 42 -92 58 -184 52 -305 -13 -261 -169 -460 -418 -532 -73 -22 -370
-19 -444 4 -143 44 -236 114 -315 237 -61 93 -82 166 -88 300 -6 134 9 215 58
313 84 165 214 267 385 301 94 19 286 19 372 1z m2337 1 c292 -65 443 -268
445 -598 l0 -58 -448 0 c-247 0 -451 -2 -454 -5 -3 -3 -1 -29 4 -58 24 -134
134 -216 289 -217 101 0 163 23 219 81 l47 49 162 0 c179 0 175 2 146 -67 -17
-39 -72 -113 -114 -152 -121 -110 -278 -157 -494 -149 -142 6 -243 34 -345 95
-172 104 -245 248 -246 483 0 198 47 335 151 438 82 82 208 146 323 165 58 10
260 5 315 -7z m-1471 -398 c65 -211 123 -394 129 -408 10 -25 10 -24 22 15 7
22 47 146 88 275 41 129 94 295 117 368 l41 132 176 0 c162 0 175 -1 170 -17
-4 -17 -303 -771 -400 -1011 l-41 -102 -171 2 -170 3 -16 35 c-20 42 -429
1077 -429 1085 0 3 82 5 183 5 l183 0 118 -382z m-1854 -989 c115 -24 211 -93
251 -182 21 -46 24 -67 24 -182 0 -115 -3 -136 -23 -180 -28 -60 -62 -98 -119
-132 -77 -45 -134 -55 -350 -60 l-203 -5 0 -209 0 -210 -122 3 -123 3 0 540
c0 593 -1 585 60 615 25 12 75 15 290 13 144 -2 285 -8 315 -14z m-4365 -3
c178 -47 270 -183 236 -348 -14 -65 -46 -112 -102 -150 l-40 -27 38 -19 c100
-52 148 -134 148 -257 0 -67 -5 -89 -27 -135 -32 -65 -96 -133 -152 -162 -89
-46 -131 -51 -518 -55 l-368 -5 0 586 0 586 368 0 c274 0 380 -4 417 -14z
m655 -571 l0 -585 -135 0 -135 0 0 585 0 585 135 0 135 0 0 -585z m430 349 l0
-236 243 236 242 236 180 0 180 0 -40 -36 c-79 -71 -210 -190 -264 -240 -31
-28 -92 -83 -136 -123 -44 -40 -80 -76 -80 -81 0 -4 52 -72 115 -150 63 -78
186 -230 273 -337 86 -107 157 -196 157 -199 0 -2 -78 -4 -174 -4 l-174 0 -75
98 c-120 157 -311 398 -319 403 -4 2 -35 -20 -68 -49 l-60 -53 0 -200 0 -200
-137 3 -138 3 -3 583 -2 582 140 0 140 0 0 -236z m4176 178 c12 -31 61 -156
108 -277 223 -566 316 -807 316 -821 0 -11 -26 -14 -143 -14 l-143 0 -13 37
c-8 21 -27 75 -43 120 l-30 83 -237 0 -237 0 -43 -120 -43 -120 -139 0 c-103
0 -139 3 -139 12 0 7 45 125 99 263 55 137 143 360 196 495 53 135 110 280
127 323 l31 77 156 0 156 0 21 -58z m1296 47 c103 -21 192 -92 236 -187 36
-79 36 -183 0 -262 -25 -56 -88 -122 -127 -135 -30 -9 -26 -16 23 -46 72 -44
89 -93 97 -279 6 -165 10 -185 40 -201 11 -5 19 -19 19 -30 0 -19 -6 -19 -152
-17 l-152 3 -8 30 c-5 17 -13 95 -17 175 -8 156 -17 189 -64 224 -26 19 -44
21 -208 24 l-179 4 0 -231 0 -232 -137 3 -138 3 -3 583 -2 582 359 0 c223 0
380 -4 413 -11z m700 -223 l3 -235 125 122 c69 67 178 173 242 235 l116 112
178 0 178 0 -75 -68 c-41 -38 -157 -144 -259 -236 -102 -91 -185 -171 -185
-176 0 -8 111 -147 453 -566 50 -63 92 -116 92 -119 0 -3 -78 -5 -172 -5
l-173 0 -26 33 c-14 17 -101 129 -193 247 -92 118 -173 216 -179 218 -7 1 -38
-21 -70 -50 l-57 -53 -3 -195 -2 -195 -135 0 -135 0 -3 583 -2 582 140 0 140
0 2 -234z"/>
<path d="M723 2540 c-104 -22 -172 -89 -199 -197 l-6 -23 280 0 280 0 -10 43
c-16 74 -77 138 -156 165 -47 16 -141 22 -189 12z"/>
<path d="M3965 2521 c-16 -4 -43 -15 -60 -23 -132 -70 -178 -332 -87 -501 44
-83 109 -117 221 -117 158 1 248 100 258 285 9 150 -34 267 -115 319 -67 42
-143 55 -217 37z"/>
<path d="M6073 2540 c-60 -13 -94 -32 -140 -83 -59 -64 -78 -128 -78 -262 0
-135 18 -194 81 -264 58 -64 107 -84 209 -84 95 0 136 15 199 73 68 63 89 126
90 270 0 94 -4 126 -22 175 -25 68 -79 129 -137 156 -49 22 -145 31 -202 19z"/>
<path d="M8413 2540 c-89 -18 -160 -78 -188 -158 -8 -25 -15 -49 -15 -54 0 -4
126 -8 280 -8 l280 0 -6 28 c-26 107 -94 170 -208 191 -67 12 -83 12 -143 1z"/>
<path d="M4920 1031 l0 -171 153 0 c139 0 157 2 197 23 56 28 80 72 80 147 0
71 -25 118 -76 144 -33 18 -61 21 -196 24 l-158 4 0 -171z"/>
<path d="M460 1069 l0 -131 193 4 c258 6 297 23 297 135 0 101 -59 123 -333
123 l-157 0 0 -131z"/>
<path d="M460 595 l0 -156 203 3 c175 3 207 6 241 22 72 36 98 153 50 219 -37
50 -81 60 -296 65 l-198 4 0 -157z"/>
<path d="M6002 983 c-28 -76 -65 -175 -81 -220 l-30 -83 159 0 c88 0 160 2
160 5 0 8 -141 408 -150 423 -4 9 -27 -40 -58 -125z"/>
<path d="M7040 1045 l0 -155 183 0 c157 0 188 3 224 19 62 28 76 57 71 141 -3
60 -8 73 -32 99 -39 41 -95 51 -286 51 l-160 0 0 -155z"/>
</g>
</svg>
