<?xml version="1.0" standalone="no"?>
<!DOCTYPE svg PUBLIC "-//W3C//DTD SVG 20010904//EN"
 "http://www.w3.org/TR/2001/REC-SVG-20010904/DTD/svg10.dtd">
<svg version="1.0" xmlns="http://www.w3.org/2000/svg"
 width="930.000000pt" height="336.000000pt" viewBox="0 0 930.000000 336.000000"
 preserveAspectRatio="xMidYMid meet">

<g transform="translate(0.000000,336.000000) scale(0.100000,-0.100000)"
fill="#000000" stroke="none">
<path d="M1530 2390 l0 -761 153 3 152 3 3 758 2 757 -155 0 -155 0 0 -760z"/>
<path d="M1970 2390 l0 -761 158 3 157 3 3 176 2 175 64 63 64 64 31 -49 c16
-27 84 -134 149 -239 l119 -190 188 -3 c104 -1 192 1 196 5 4 5 -78 136 -181
293 -104 157 -205 312 -226 344 l-37 59 84 81 c47 45 145 138 219 208 l135
127 -206 1 -205 0 -140 -147 c-76 -80 -165 -174 -196 -207 l-57 -61 -1 408 0
407 -160 0 -160 0 0 -760z"/>
<path d="M622 2775 c-163 -36 -309 -147 -374 -285 -50 -105 -63 -167 -62 -305
0 -194 37 -299 143 -406 118 -118 284 -179 490 -179 249 0 430 87 541 260 17
26 32 61 33 77 l2 28 -161 3 -161 2 -27 -35 c-15 -19 -48 -47 -74 -62 -43 -26
-55 -28 -152 -28 -87 0 -113 4 -152 22 -84 39 -141 121 -150 218 l-3 30 453 3
452 2 0 63 c-1 147 -30 262 -89 354 -112 173 -282 254 -530 252 -64 0 -144 -7
-179 -14z m290 -247 c79 -27 140 -91 156 -165 l10 -43 -280 0 -280 0 6 23 c35
142 143 214 298 201 32 -3 72 -10 90 -16z"/>
<path d="M3850 2780 c-180 -31 -321 -161 -386 -355 -35 -104 -44 -273 -20
-385 39 -185 148 -318 311 -380 84 -31 257 -39 339 -16 71 21 97 36 160 95
l48 46 -5 -100 c-7 -122 -19 -165 -58 -209 -60 -69 -57 -69 -607 -67 -271 1
-528 -1 -572 -5 l-80 -7 0 -583 0 -584 493 2 492 3 0 105 0 105 -357 3 -358 2
0 145 0 145 315 0 315 0 0 105 0 105 -315 0 -315 0 0 114 0 115 488 3 c425 3
495 6 547 21 142 41 242 114 292 211 50 99 53 136 53 764 l0 582 -165 0 -165
0 0 -70 0 -71 -52 54 c-29 29 -74 63 -99 75 -78 38 -194 50 -299 32z m254
-261 c137 -38 204 -161 193 -354 -10 -185 -100 -284 -258 -285 -112 0 -177 34
-221 117 -91 169 -45 431 87 501 60 31 134 39 199 21z"/>
<path d="M5337 2780 c-89 -16 -168 -67 -231 -152 -16 -21 -31 -38 -35 -38 -3
0 -5 38 -3 85 l3 85 -160 0 -161 0 2 -562 3 -563 162 -3 162 -2 4 327 c4 356
7 380 59 439 53 60 99 77 223 83 l110 6 0 150 0 150 -45 2 c-25 0 -66 -3 -93
-7z"/>
<path d="M5956 2774 c-171 -34 -301 -136 -385 -301 -49 -98 -64 -179 -58 -313
6 -134 27 -207 88 -300 79 -123 172 -193 315 -237 74 -23 371 -26 444 -4 249
72 405 271 418 532 6 121 -10 213 -52 305 -83 179 -209 280 -398 319 -86 18
-278 18 -372 -1z m319 -253 c58 -27 112 -88 137 -156 31 -86 31 -265 -1 -347
-24 -63 -88 -129 -149 -155 -52 -22 -185 -21 -240 2 -56 23 -126 102 -149 168
-26 74 -25 251 1 326 20 58 81 133 129 157 70 37 196 39 272 5z"/>
<path d="M8350 2783 c-115 -19 -241 -83 -323 -165 -104 -103 -151 -240 -151
-438 1 -235 74 -379 246 -483 102 -61 203 -89 345 -95 216 -8 373 39 494 149
42 39 97 113 114 152 29 69 33 67 -146 67 l-162 0 -47 -49 c-56 -58 -118 -81
-219 -81 -155 1 -265 83 -289 217 -5 29 -7 55 -4 58 3 3 207 5 454 5 l448 0 0
58 c-2 330 -153 533 -445 598 -55 12 -257 17 -315 7z m206 -244 c114 -21 182
-84 208 -191 l6 -28 -280 0 c-154 0 -280 4 -280 8 0 28 36 104 63 134 67 73
162 99 283 77z"/>
<path d="M6710 2755 c0 -8 409 -1043 429 -1085 l16 -35 170 -3 171 -2 41 102
c97 240 396 994 400 1011 5 16 -8 17 -170 17 l-176 0 -41 -132 c-23 -73 -76
-239 -117 -368 -41 -129 -81 -253 -88 -275 -12 -39 -12 -40 -22 -15 -6 14 -64
197 -129 408 l-118 382 -183 0 c-101 0 -183 -2 -183 -5z"/>
<path d="M4735 1390 c-61 -30 -60 -22 -60 -615 l0 -540 123 -3 122 -3 0 210 0
209 203 5 c216 5 273 15 350 60 57 34 91 72 119 132 20 44 23 65 23 180 0 115
-3 136 -24 182 -40 89 -136 158 -251 182 -30 6 -171 12 -315 14 -215 2 -265
-1 -290 -13z m539 -216 c51 -26 76 -73 76 -144 0 -75 -24 -119 -80 -147 -40
-21 -58 -23 -197 -23 l-153 0 0 171 0 171 158 -4 c135 -3 163 -6 196 -24z"/>
<path d="M190 814 l0 -586 368 5 c387 4 429 9 518 55 56 29 120 97 152 162 22
46 27 68 27 135 0 123 -48 205 -148 257 l-38 19 40 27 c56 38 88 85 102 150
27 131 -31 255 -146 314 -85 44 -121 48 -507 48 l-368 0 0 -586z m647 375 c87
-15 113 -41 113 -112 0 -112 -39 -129 -297 -135 l-193 -4 0 131 0 131 157 0
c86 0 185 -5 220 -11z m58 -463 c77 -33 105 -114 67 -198 -33 -75 -59 -82
-299 -86 l-203 -3 0 156 0 157 198 -4 c156 -4 205 -8 237 -22z"/>
<path d="M1360 815 l0 -585 135 0 135 0 0 585 0 585 -135 0 -135 0 0 -585z"/>
<path d="M1782 818 l3 -583 138 -3 137 -3 0 200 0 200 60 53 c33 29 64 51 68
49 8 -5 199 -246 319 -403 l75 -98 174 0 c96 0 174 2 174 4 0 3 -71 92 -157
199 -87 107 -210 259 -273 337 -63 78 -115 146 -115 150 0 5 36 41 80 81 44
40 105 95 136 123 54 50 185 169 264 240 l40 36 -180 0 -180 0 -242 -236 -243
-236 0 236 0 236 -140 0 -140 0 2 -582z"/>
<path d="M5872 1323 c-17 -43 -74 -188 -127 -323 -53 -135 -141 -358 -196
-495 -54 -138 -99 -256 -99 -263 0 -9 36 -12 139 -12 l139 0 43 120 43 120
237 0 237 0 30 -83 c16 -45 35 -99 43 -120 l13 -37 143 0 c117 0 143 3 143 14
0 14 -93 255 -316 821 -47 121 -96 246 -108 277 l-21 58 -156 0 -156 0 -31
-77z m267 -430 c39 -112 71 -205 71 -208 0 -3 -72 -5 -160 -5 l-159 0 30 83
c118 322 133 358 139 345 4 -7 40 -104 79 -215z"/>
<path d="M6762 818 l3 -583 138 -3 137 -3 0 232 0 231 179 -4 c164 -3 182 -5
208 -24 47 -35 56 -68 64 -224 4 -80 12 -158 17 -175 l8 -30 152 -3 c146 -2
152 -2 152 17 0 11 -8 25 -19 30 -30 16 -34 36 -40 201 -8 186 -25 235 -97
279 -49 30 -53 37 -23 46 39 13 102 79 127 135 36 79 36 183 0 262 -44 95
-133 166 -236 187 -33 7 -190 11 -413 11 l-359 0 2 -582z m646 371 c32 -6 59
-20 78 -40 24 -26 29 -39 32 -99 5 -84 -9 -113 -71 -141 -36 -16 -67 -19 -224
-19 l-183 0 0 155 0 155 160 0 c87 0 181 -5 208 -11z"/>
<path d="M7952 818 l3 -583 135 0 135 0 2 195 3 195 57 53 c32 29 63 51 70 50
6 -2 87 -100 179 -218 92 -118 179 -230 193 -247 l26 -33 173 0 c94 0 172 2
172 5 0 3 -42 56 -92 119 -342 419 -453 558 -453 566 0 5 83 85 185 176 102
92 218 198 259 236 l75 68 -178 0 -178 0 -116 -112 c-64 -62 -173 -168 -242
-235 l-125 -122 -3 235 -2 234 -140 0 -140 0 2 -582z"/>
</g>
</svg>
