<?xml version="1.0" standalone="no"?>
<!DOCTYPE svg PUBLIC "-//W3C//DTD SVG 20010904//EN"
 "http://www.w3.org/TR/2001/REC-SVG-20010904/DTD/svg10.dtd">
<svg version="1.0" xmlns="http://www.w3.org/2000/svg"
 width="300.000000pt" height="108.000000pt" viewBox="0 0 300.000000 108.000000"
 preserveAspectRatio="xMidYMid meet">
<metadata>
Created by potrace 1.10, written by Peter Selinger 2001-2011
</metadata>
<g transform="translate(0.000000,108.000000) scale(0.050000,-0.050000)"
fill="#ffffff" stroke="none">
<path d="M850 2088 c-56 -104 -106 -132 -191 -108 -181 52 -385 -4 -547 -152
l-107 -98 -2 -838 c-2 -591 4 -846 20 -865 35 -42 1362 -39 1397 3 32 38 68
38 100 0 41 -49 1094 -44 1134 5 89 111 181 307 113 238 -35 -34 -101 136 -75
189 65 130 108 89 108 -103 0 -174 1 -177 75 -266 l75 -90 147 -2 c134 -1 151
4 187 49 48 62 59 62 132 0 73 -61 342 -75 397 -20 16 17 56 30 87 30 31 0 71
-13 87 -30 44 -44 623 -44 640 0 15 39 111 39 126 0 17 -44 610 -44 647 0 32
38 68 38 100 0 28 -34 420 -45 420 -11 0 10 18 24 40 31 52 16 61 298 11 317
-129 49 -151 225 -42 333 75 76 100 221 46 278 -20 22 -20 29 0 36 34 13 36
766 2 766 -13 0 -65 40 -117 88 -152 142 -346 184 -561 120 -91 -27 -124 -28
-211 -8 -112 27 -222 6 -270 -52 -56 -68 -91 -69 -168 -8 -91 73 -185 92 -296
61 -68 -19 -106 -17 -203 8 -158 41 -240 39 -399 -10 -110 -34 -139 -36 -177
-15 -39 21 -692 44 -1071 37 -99 -2 -212 -53 -282 -129 -61 -65 -83 -65 -144
0 -73 79 -145 108 -266 108 -110 0 -212 76 -212 157 0 17 -100 23 -355 23
l-356 0 -39 -72z m330 -552 l0 -496 -100 0 -100 0 0 498 0 497 100 -1 100 -2
0 -496z m299 239 c-4 -299 -15 -289 139 -128 l128 133 132 -1 132 -1 -145
-134 c-174 -162 -173 -117 -5 -365 170 -250 169 -242 17 -235 l-124 6 -86 139
c-47 76 -90 148 -94 160 -25 72 -93 -62 -93 -183 l0 -128 -103 6 -102 6 -3
485 -2 485 106 0 106 0 -3 -245z m-826 2 c119 -30 214 -125 244 -244 46 -183
63 -173 -277 -173 -165 0 -300 -5 -300 -11 0 -133 213 -217 325 -129 54 42
255 59 255 22 0 -101 -192 -210 -370 -210 -249 -1 -391 114 -406 328 -23 319
205 499 529 417z m2072 -52 l55 -52 0 53 c0 51 5 54 100 54 l100 0 0 -402 c0
-601 -3 -604 -535 -615 l-345 -6 0 -76 0 -75 200 10 200 9 0 -72 0 -73 -200 0
-200 0 0 -102 0 -102 230 7 230 7 0 -75 0 -75 -320 0 -320 0 0 380 0 380 378
0 c442 0 459 6 477 168 l11 96 -51 -50 c-112 -113 -357 -74 -464 72 -68 94
-70 329 -3 443 102 173 327 220 457 96z m815 -22 l0 -98 -94 -10 c-148 -17
-166 -53 -166 -328 l0 -229 -105 6 -105 6 -5 365 -6 365 101 0 c99 0 100 -1
100 -64 l0 -64 65 62 c133 125 215 121 215 -11z m570 75 c245 -68 346 -418
177 -618 -174 -207 -569 -172 -687 61 -171 334 129 662 510 557z m1516 -2
c151 -45 254 -191 254 -361 l0 -55 -299 0 -299 0 21 -61 c39 -112 206 -155
302 -79 36 28 82 40 153 40 122 0 130 -25 37 -114 -262 -248 -715 -94 -715
243 1 304 245 477 546 387z m-983 -253 c41 -136 79 -251 84 -256 5 -5 42 97
82 227 40 130 77 247 81 261 10 29 230 36 230 7 0 -9 -22 -66 -48 -125 -26
-59 -90 -218 -143 -353 l-94 -246 -111 6 -111 6 -36 90 c-19 50 -84 214 -144
366 l-109 276 122 -6 123 -6 74 -247z m-3963 -653 c106 -55 136 -194 59 -271
l-42 -42 52 -47 c62 -58 71 -195 16 -263 -64 -78 -126 -95 -390 -103 l-255 -9
0 383 0 382 251 0 c185 0 266 -8 309 -30z m380 -350 l0 -380 -90 0 -90 0 0
380 0 380 90 0 90 0 0 -380z m263 227 l-6 -154 165 154 165 153 111 -1 112 0
-150 -139 c-82 -76 -157 -139 -165 -139 -37 -2 -4 -55 155 -246 200 -242 198
-235 65 -235 l-106 0 -129 170 -128 169 -47 -44 c-41 -38 -47 -61 -43 -165 l5
-120 -84 0 -85 0 -4 375 -4 375 90 0 90 0 -7 -153z m2164 134 c90 -34 133
-100 133 -204 0 -190 -80 -257 -308 -257 l-132 0 0 -140 0 -140 -80 0 -80 0 0
367 c0 201 6 372 13 380 21 20 398 16 454 -6z m657 -326 c74 -190 140 -361
147 -380 12 -30 0 -35 -86 -35 -98 0 -99 1 -123 80 l-24 80 -156 0 -156 0 -24
-80 c-23 -79 -25 -80 -120 -80 l-96 0 152 380 151 380 101 0 100 0 134 -345z
m779 314 c122 -63 143 -272 34 -331 l-41 -21 40 -44 c27 -29 43 -79 49 -153 4
-60 15 -126 23 -145 14 -31 4 -35 -86 -35 l-102 0 0 99 c0 179 -19 201 -170
201 l-130 0 0 -150 0 -150 -90 0 -90 0 0 380 0 380 251 0 c189 0 266 -8 312
-31z m380 -119 c-4 -82 -4 -150 0 -150 4 0 78 68 166 150 l158 150 121 0 120
0 -64 -55 c-36 -30 -114 -95 -173 -145 -136 -112 -139 -88 44 -306 85 -101
167 -200 182 -219 26 -32 19 -35 -90 -35 l-118 0 -129 170 -128 169 -48 -44
c-41 -39 -46 -60 -41 -165 l7 -120 -86 0 -86 0 -4 375 -4 375 90 0 91 0 -8
-150z"/>
<path d="M393 1599 c-108 -85 -74 -117 127 -117 99 0 180 8 180 17 0 120 -200
184 -307 100z"/>
<path d="M2481 1567 c-106 -135 -34 -356 117 -356 121 0 172 59 172 198 0 193
-183 293 -289 158z"/>
<path d="M3841 1584 c-122 -122 -68 -366 87 -395 147 -28 256 108 224 278 -31
166 -199 230 -311 117z"/>
<path d="M5349 1591 c-92 -92 -70 -111 131 -111 99 0 180 8 180 18 0 126 -214
190 -311 93z"/>
<path d="M300 687 l0 -87 109 0 c133 0 211 27 211 75 -1 65 -29 79 -175 90
l-145 10 0 -88z"/>
<path d="M300 380 l0 -100 130 0 c103 0 138 8 170 40 92 92 21 160 -167 160
l-133 0 0 -100z"/>
<path d="M3180 662 l0 -115 115 8 c117 9 165 40 165 105 0 64 -49 95 -165 106
l-115 11 0 -115z"/>
<path d="M3890 695 c-5 -14 -27 -74 -49 -135 -23 -60 -41 -112 -41 -115 0 -3
45 -5 100 -5 115 0 113 -6 58 156 -43 127 -53 142 -68 99z"/>
<path d="M4540 668 l0 -106 135 11 c151 14 185 32 185 97 0 66 -34 84 -185 95
l-135 10 0 -107z"/>
</g>
</svg>
