<?xml version="1.0" standalone="no"?>
<!DOCTYPE svg PUBLIC "-//W3C//DTD SVG 20010904//EN"
 "http://www.w3.org/TR/2001/REC-SVG-20010904/DTD/svg10.dtd">
<svg version="1.0" xmlns="http://www.w3.org/2000/svg"
 width="900.000000pt" height="324.000000pt" viewBox="0 0 900.000000 324.000000"
 preserveAspectRatio="xMidYMid meet">
<metadata>
Created by potrace 1.10, written by Peter Selinger 2001-2011
</metadata>
<g transform="translate(0.000000,324.000000) scale(0.100000,-0.100000)"
fill="#ffffff" stroke="none">
<path d="M1490 3139 c-33 -13 -97 -76 -118 -114 -12 -23 -18 -74 -23 -225 -3
-107 -7 -196 -8 -197 -7 -13 -47 4 -83 33 -88 74 -207 127 -348 155 -77 15
-284 6 -365 -16 -188 -51 -340 -174 -419 -338 -68 -142 -71 -156 -71 -312 1
-288 45 -389 258 -583 69 -64 62 -82 -33 -82 -27 0 -60 -4 -75 -10 -45 -17
-104 -71 -125 -115 -19 -40 -20 -60 -20 -556 0 -581 -2 -561 80 -632 64 -55
106 -60 439 -54 157 2 297 7 311 10 14 4 39 9 55 13 64 13 137 42 159 63 13
12 40 25 60 28 34 5 41 2 84 -39 60 -58 73 -64 152 -73 75 -8 151 7 188 35 33
27 65 25 117 -6 53 -30 158 -42 223 -25 47 13 124 77 148 122 7 15 16 60 19
101 4 40 8 83 11 96 10 51 57 16 179 -136 69 -86 136 -148 185 -169 56 -24
204 -29 294 -9 65 15 82 16 114 4 28 -10 137 -13 472 -13 485 0 465 -3 530 71
43 50 60 93 60 154 0 68 -18 106 -76 163 -37 36 -63 52 -105 64 l-57 16 63 59
c80 75 100 122 91 210 -5 41 -16 76 -32 100 -40 62 -36 68 59 68 139 0 385 53
454 98 53 34 53 35 54 -390 0 -216 4 -415 8 -441 7 -41 17 -58 62 -103 50 -50
60 -55 118 -65 88 -14 150 1 206 48 60 50 85 111 85 208 0 95 17 132 63 139
17 3 89 7 160 10 l127 5 0 -30 c0 -16 -11 -57 -25 -91 -36 -89 -34 -158 5
-208 41 -52 84 -76 148 -84 133 -17 233 21 296 113 17 24 44 59 60 78 l28 33
108 0 109 0 35 -37 c163 -173 160 -170 222 -183 74 -16 168 -7 233 20 l49 22
43 -23 c58 -30 205 -33 259 -5 94 49 123 105 125 246 3 136 2 127 25 150 22
22 89 27 133 11 28 -11 32 -24 46 -153 11 -101 32 -147 94 -211 37 -37 54 -47
103 -57 79 -17 175 -7 240 25 28 14 56 25 61 25 6 0 32 -12 59 -28 44 -24 59
-27 144 -27 86 0 99 3 135 27 91 59 115 105 115 220 0 36 3 73 6 82 13 35 66
8 110 -56 72 -103 175 -210 236 -244 51 -28 59 -29 178 -29 110 0 131 3 172
23 52 26 95 76 104 121 7 33 -19 85 -78 159 -18 23 -67 85 -108 138 -41 53
-93 118 -115 143 -23 25 -49 57 -58 71 -10 14 -29 40 -42 59 -14 19 -25 39
-25 46 0 22 63 91 172 189 134 121 208 212 215 266 5 36 2 42 -40 82 -31 28
-67 49 -109 63 -34 11 -63 25 -65 31 -2 7 18 28 44 47 60 44 155 151 185 208
24 46 28 105 14 185 -7 34 -4 46 17 77 66 98 34 339 -65 487 -70 103 -72 105
-108 137 -48 41 -142 103 -157 103 -7 0 -32 9 -55 19 -67 30 -116 41 -213 50
-157 14 -297 -10 -422 -71 -85 -42 -126 -45 -154 -12 -34 41 -84 54 -210 54
-103 0 -129 -3 -165 -20 -70 -34 -117 -95 -149 -191 -38 -117 -85 -219 -102
-219 -16 0 -40 53 -73 160 -29 97 -54 146 -99 193 -63 68 -95 78 -239 78 -139
0 -158 -4 -216 -50 -21 -17 -47 -31 -56 -31 -9 0 -48 14 -85 31 -153 69 -309
95 -474 77 -141 -14 -229 -46 -380 -135 l-45 -27 -20 29 c-12 16 -40 49 -62
74 -39 42 -45 45 -104 49 -72 5 -159 -11 -204 -39 -40 -24 -73 -24 -127 1 -64
29 -258 29 -312 0 -46 -25 -64 -25 -118 0 -56 25 -243 28 -309 5 -57 -20 -89
-19 -146 5 -26 11 -81 25 -121 31 -399 55 -725 -283 -700 -726 3 -55 11 -118
17 -140 25 -90 44 -141 55 -155 7 -8 21 -31 30 -50 26 -51 55 -83 143 -157 42
-36 78 -70 80 -74 6 -16 -46 -20 -247 -17 -181 3 -205 5 -215 20 -8 14 -6 26
9 54 10 20 18 46 17 59 -4 52 -71 170 -222 390 -55 80 -107 171 -114 199 -9
38 4 56 135 186 165 164 198 231 147 296 -58 74 -106 89 -283 88 -136 0 -149
-4 -236 -57 -19 -12 -60 -43 -91 -69 -30 -27 -60 -48 -67 -48 -23 0 -31 55
-31 217 0 148 -2 172 -21 209 -27 57 -88 110 -141 125 -65 18 -231 5 -272 -21
-42 -26 -60 -25 -105 2 -31 20 -52 23 -151 25 -63 2 -126 -2 -140 -8z m271
-840 c0 -404 -1 -736 -1 -739 0 -3 -66 -5 -146 -4 l-146 1 0 739 c1 406 1 739
2 739 0 0 66 0 146 0 l145 -1 0 -735z m448 337 c-4 -349 -3 -386 12 -386 9 0
21 10 26 23 11 22 74 91 255 280 l93 97 165 5 c91 3 180 6 199 7 56 5 48 -20
-29 -83 -14 -11 -41 -35 -60 -53 -19 -17 -87 -79 -150 -136 -123 -111 -160
-148 -160 -156 0 -3 16 -25 35 -48 19 -24 35 -46 35 -51 0 -4 14 -24 30 -45
17 -21 30 -41 30 -44 0 -7 40 -67 51 -76 3 -3 9 -12 12 -20 16 -33 159 -244
169 -248 5 -2 8 -8 8 -14 0 -6 15 -29 34 -52 18 -23 36 -51 40 -62 6 -21 6
-21 -181 -17 -104 3 -193 6 -199 8 -6 2 -37 47 -70 100 -32 54 -67 109 -76
124 -10 14 -22 35 -28 46 -13 24 -27 47 -62 101 -14 22 -27 49 -30 59 -7 37
-37 28 -94 -30 l-56 -56 -2 -176 -1 -177 -154 2 c-84 0 -155 3 -158 5 -2 3 -4
332 -4 733 l0 729 153 5 c84 3 157 2 162 -2 4 -3 7 -180 5 -392z m-1299 38
c164 -36 265 -93 343 -197 70 -92 100 -188 114 -365 l6 -82 -443 0 c-243 1
-445 -2 -448 -4 -10 -11 23 -103 54 -151 91 -139 343 -155 453 -29 l33 37 160
2 c183 2 186 1 147 -74 -28 -54 -173 -201 -198 -201 -9 0 -22 -5 -29 -12 -20
-20 -84 -39 -202 -60 -98 -17 -125 -18 -185 -8 -112 17 -158 27 -195 40 -19 7
-39 15 -45 17 -57 20 -176 110 -211 157 -72 101 -94 183 -94 356 0 163 14 221
84 347 31 55 189 183 227 183 6 0 23 6 37 14 82 43 267 57 392 30z m4385 -139
l0 -150 -77 3 c-59 3 -91 -1 -143 -19 -77 -26 -116 -60 -145 -127 -20 -44 -21
-64 -20 -352 1 -168 1 -312 1 -320 -1 -13 -24 -15 -158 -13 -87 2 -160 3 -163
3 -3 0 -5 248 -5 550 l0 550 158 0 c96 0 157 -4 157 -10 0 -5 -5 -40 -12 -78
-20 -119 1 -128 67 -28 19 29 55 64 81 81 56 36 152 63 214 61 l45 -1 0 -150z
m795 139 c110 -21 183 -52 253 -107 35 -27 116 -124 130 -157 4 -8 11 -22 16
-30 31 -51 71 -208 71 -277 0 -75 -29 -191 -69 -272 -45 -92 -144 -197 -216
-230 -27 -12 -63 -28 -80 -36 -16 -7 -80 -20 -141 -30 -114 -17 -153 -15 -309
14 -147 27 -266 113 -349 251 -20 34 -36 67 -36 73 0 7 -7 26 -16 42 -13 24
-17 62 -18 180 -1 167 3 182 93 353 19 36 123 139 153 152 12 5 30 14 38 19
34 20 92 41 113 41 12 0 42 7 67 14 61 20 197 19 300 0z m2253 1 c32 -8 68
-15 80 -15 12 0 31 -7 41 -15 11 -8 26 -15 33 -15 19 0 110 -60 154 -101 36
-34 99 -122 99 -139 0 -4 6 -21 14 -37 26 -52 48 -175 44 -253 -3 -73 -4 -75
-28 -73 -89 6 -845 2 -851 -4 -9 -9 11 -94 27 -114 6 -8 13 -21 17 -30 9 -27
89 -84 144 -103 37 -13 71 -16 120 -13 99 6 155 31 201 91 l22 29 165 2 c162
2 165 1 165 -19 0 -38 -41 -99 -114 -172 -87 -86 -177 -131 -306 -153 -138
-23 -161 -23 -258 -6 -113 20 -171 40 -287 103 -53 28 -121 102 -151 163 -54
110 -64 156 -64 285 1 143 20 233 72 324 4 8 12 25 17 37 22 49 185 183 223
183 8 0 23 7 34 15 10 8 30 15 44 15 14 1 48 7 75 15 67 18 197 18 268 0z
m-4411 -8 c32 -7 63 -18 70 -25 6 -6 17 -12 24 -12 13 0 86 -77 103 -109 21
-38 33 -12 29 63 l-3 71 158 0 158 0 -1 -555 c-1 -305 -5 -582 -10 -615 -9
-65 -30 -129 -48 -147 -7 -7 -12 -17 -12 -23 0 -20 -126 -125 -150 -125 -6 0
-21 -6 -33 -12 -67 -38 -113 -42 -602 -47 l-479 -6 1 -105 c1 -58 2 -109 2
-114 1 -4 25 -6 54 -2 28 3 165 7 302 8 l250 2 0 -104 0 -104 -304 -1 -304 0
0 -143 c0 -78 2 -144 4 -145 2 -2 157 0 344 3 187 3 342 4 344 3 3 -2 5 -162
2 -208 -1 -7 -166 -9 -478 -8 l-478 2 0 567 0 566 545 -1 c540 -2 546 -2 594
20 79 35 100 61 125 160 38 150 33 232 -10 179 -38 -47 -82 -90 -92 -90 -6 0
-18 -6 -26 -13 -18 -15 -155 -47 -202 -47 -53 0 -171 31 -236 62 -66 32 -161
118 -188 172 -8 17 -19 38 -24 46 -40 69 -46 104 -46 275 0 178 1 186 53 295
21 43 73 122 98 147 32 32 101 83 114 83 6 0 21 6 33 12 58 34 219 46 319 25z
m2758 -7 l147 0 11 -25 c7 -14 12 -35 12 -46 0 -12 6 -35 14 -52 8 -18 16 -43
19 -57 3 -14 10 -41 17 -60 25 -74 32 -96 41 -135 6 -21 14 -44 18 -50 5 -5
11 -23 14 -40 2 -16 10 -45 16 -62 6 -18 16 -48 22 -65 6 -18 15 -51 19 -73
25 -122 42 -156 58 -114 20 51 32 96 32 120 1 13 7 35 15 49 8 14 15 36 15 50
0 14 7 34 15 44 8 11 15 31 15 45 1 14 7 37 15 51 8 14 14 35 15 46 0 12 7 35
15 50 8 16 15 37 15 46 0 10 6 32 14 50 15 35 42 126 50 168 11 57 18 59 194
61 90 2 166 -2 171 -7 6 -5 -6 -43 -30 -94 -59 -125 -74 -161 -116 -275 -8
-22 -21 -53 -29 -68 -8 -16 -14 -35 -14 -42 0 -7 -6 -26 -14 -42 -8 -15 -22
-48 -31 -73 -9 -25 -23 -58 -31 -73 -8 -16 -14 -35 -14 -42 0 -7 -7 -28 -16
-47 -38 -75 -44 -90 -44 -103 0 -7 -6 -26 -14 -42 -8 -15 -22 -48 -31 -73 -9
-25 -25 -63 -34 -84 l-17 -39 -164 2 c-168 2 -190 7 -190 42 0 10 -7 35 -16
56 -34 79 -42 99 -59 143 -9 25 -23 58 -31 73 -8 16 -14 35 -14 42 0 7 -6 26
-14 42 -8 15 -22 48 -31 73 -9 25 -23 58 -31 73 -8 16 -14 36 -14 45 0 9 -7
26 -15 36 -8 11 -15 28 -15 37 0 10 -6 30 -14 46 -8 15 -22 48 -31 73 -10 25
-24 60 -31 78 -8 17 -20 47 -27 65 -8 17 -29 62 -46 99 -37 74 -34 93 11 84
17 -3 97 -6 178 -6z m-1491 -429 c6 -10 8 -42 4 -70 -7 -65 13 -213 41 -299
40 -121 173 -292 269 -345 21 -12 52 -29 68 -38 62 -35 75 -63 42 -90 -9 -8
-36 -44 -60 -81 -23 -38 -48 -68 -54 -68 -6 0 -40 27 -76 60 -116 108 -188
140 -367 160 -55 6 -102 13 -105 16 -3 3 10 33 29 67 l35 62 5 275 c5 300 8
312 66 350 38 26 90 26 103 1z m1473 -408 c8 -10 32 -61 53 -113 21 -52 53
-119 72 -148 58 -92 46 -102 -119 -102 -110 0 -138 -11 -205 -83 -42 -44 -53
-63 -53 -89 0 -30 -10 -408 -14 -503 -1 -28 -5 -40 -16 -40 -18 0 -72 106
-100 197 -11 37 -25 70 -30 73 -5 3 -16 27 -24 53 -19 64 -102 259 -127 299
-11 18 -18 37 -15 42 3 5 30 14 58 21 75 16 104 28 183 73 103 59 204 166 258
274 23 45 36 59 58 62 3 1 13 -7 21 -16z m877 -27 c12 -18 21 -40 21 -47 0
-19 105 -141 135 -157 14 -7 25 -17 25 -22 0 -5 21 -23 46 -40 42 -30 44 -33
29 -50 -9 -9 -33 -20 -54 -23 -37 -5 -151 -77 -151 -95 0 -5 -14 -18 -31 -31
l-30 -22 -43 35 c-24 19 -76 52 -116 74 -41 21 -75 43 -77 49 -2 6 12 32 32
58 20 25 54 87 75 136 82 186 98 202 139 135z m-5132 -137 c29 -41 69 -93 88
-116 47 -55 45 -68 -11 -82 -78 -20 -134 -55 -247 -155 -60 -53 -114 -96 -121
-96 -8 0 -18 24 -26 61 -7 34 -25 77 -41 99 -16 22 -29 44 -29 50 0 17 38 30
90 30 61 0 84 10 128 59 42 45 59 76 72 137 5 27 13 59 15 72 8 35 25 23 82
-59z m-1059 -76 c43 -40 67 -91 51 -109 -6 -8 -20 -14 -31 -14 -34 0 -82 -28
-136 -80 -29 -28 -56 -50 -61 -50 -14 0 -121 82 -121 93 0 13 23 30 100 74 36
20 85 54 109 75 24 21 47 38 52 38 4 0 21 -12 37 -27z m6915 -183 c17 -15 -20
-69 -88 -129 -38 -33 -77 -61 -86 -61 -13 0 -20 16 -29 66 -8 40 -22 76 -36
94 -42 50 -36 52 104 45 70 -4 131 -11 135 -15z m505 -61 c-2 -12 -12 -27 -23
-33 -21 -11 -242 -199 -330 -281 -27 -25 -76 -67 -107 -93 -32 -26 -58 -51
-58 -57 0 -5 22 -33 48 -60 45 -49 94 -106 157 -185 77 -96 150 -186 160 -196
5 -6 28 -33 50 -60 22 -27 57 -66 78 -87 20 -22 37 -43 37 -47 0 -4 8 -11 17
-14 14 -6 15 -9 2 -21 -12 -12 -26 -13 -79 -4 -36 6 -111 9 -167 7 l-102 -3
-86 115 c-47 63 -89 117 -94 120 -4 3 -50 61 -100 130 -51 69 -97 129 -101
133 -4 5 -36 -21 -71 -57 l-63 -65 3 -152 c1 -83 5 -158 8 -165 3 -8 3 -24 0
-37 -6 -22 -9 -22 -138 -22 l-132 1 2 519 c1 302 -3 537 -8 560 -6 22 -6 44
-1 50 7 8 226 13 272 6 4 -1 6 -27 3 -58 -9 -121 -15 -403 -8 -403 5 0 115
105 245 233 l238 233 82 -3 c46 -2 119 0 163 5 44 5 86 10 93 11 8 0 12 -7 10
-20z m-7826 -15 c15 -8 33 -14 40 -14 27 0 107 -66 139 -114 32 -49 33 -55 33
-148 0 -77 -4 -101 -17 -116 -9 -10 -17 -23 -17 -28 0 -5 -25 -26 -55 -47 -31
-21 -53 -42 -50 -47 3 -5 19 -12 37 -15 19 -5 51 -27 78 -55 41 -42 48 -56 60
-118 11 -58 11 -82 0 -134 -7 -35 -19 -70 -26 -79 -8 -8 -14 -20 -14 -25 -1
-28 -100 -110 -165 -136 -65 -27 -212 -38 -527 -41 l-298 -2 -2 563 c-2 309
-2 565 -1 570 2 4 173 5 380 4 301 -3 383 -7 405 -18z m619 -549 l0 -570 -131
0 -131 0 0 570 c0 314 1 570 1 570 0 0 59 0 131 0 l130 0 0 -570z m412 566 c4
-1 5 -22 3 -48 -13 -116 -17 -413 -6 -413 5 0 32 23 58 51 42 46 139 141 352
347 l65 63 173 4 c191 4 202 0 135 -51 -21 -15 -40 -30 -43 -34 -3 -3 -57 -50
-120 -105 -63 -54 -124 -108 -135 -120 -11 -11 -54 -49 -95 -85 -41 -35 -75
-69 -75 -75 0 -7 27 -42 60 -80 86 -97 116 -134 155 -185 19 -25 40 -49 46
-55 6 -5 26 -30 44 -55 18 -25 38 -49 44 -55 6 -5 38 -44 71 -85 33 -41 67
-82 76 -91 16 -16 39 -52 39 -62 0 -2 -77 -3 -171 -1 l-170 3 -80 103 c-190
246 -289 378 -289 388 0 22 -21 8 -85 -57 -59 -60 -66 -70 -61 -97 4 -26 10
-298 7 -331 -1 -6 -52 -10 -133 -10 l-132 1 2 504 c2 278 -2 530 -7 560 -5 30
-5 60 -1 65 7 8 225 13 273 6z m3226 -22 c79 -29 138 -74 179 -138 l37 -56 0
-140 c-1 -134 -2 -142 -29 -190 -32 -57 -72 -103 -101 -116 -11 -5 -27 -13
-35 -18 -56 -33 -119 -41 -311 -41 l-196 0 1 -207 1 -208 -119 0 -119 0 1 520
c1 286 2 529 2 541 0 22 36 69 57 75 7 2 140 3 295 1 252 -3 289 -5 337 -23z
m799 22 c6 -1 12 -11 12 -23 0 -13 7 -36 15 -52 8 -15 15 -34 15 -41 0 -8 7
-27 15 -44 8 -17 22 -45 30 -62 8 -17 15 -37 15 -46 0 -8 6 -27 14 -41 13 -25
24 -52 62 -154 8 -24 22 -56 30 -71 8 -16 14 -35 14 -42 0 -13 6 -28 44 -103
9 -19 16 -40 16 -49 0 -8 6 -27 14 -41 8 -15 21 -47 31 -72 9 -25 23 -58 31
-73 8 -16 14 -36 14 -45 0 -9 7 -26 15 -36 8 -11 15 -26 15 -35 0 -8 6 -22 14
-30 8 -9 16 -29 18 -46 l3 -30 -135 0 c-143 0 -170 5 -170 33 0 17 -20 82 -49
161 l-16 43 -228 -1 c-126 0 -232 -3 -237 -6 -4 -3 -10 -19 -13 -37 -4 -32
-16 -67 -42 -133 -7 -16 -14 -36 -17 -44 -3 -11 -35 -14 -147 -16 l-142 -2 5
23 c7 25 21 60 35 84 11 20 35 75 56 130 9 25 23 58 31 73 8 16 14 35 14 42 0
7 6 26 14 42 8 15 21 45 30 66 9 20 22 52 30 70 14 33 36 89 60 155 8 20 22
57 31 82 9 25 24 63 32 85 9 22 21 54 28 70 18 42 69 177 78 205 4 13 29 15
153 13 82 -1 155 -2 162 -2z m1304 -17 c15 -8 32 -14 38 -14 22 0 106 -73 136
-118 49 -74 66 -171 43 -243 -31 -97 -64 -139 -133 -169 -25 -12 -46 -23 -46
-25 0 -1 20 -15 45 -29 24 -15 56 -42 71 -61 25 -33 26 -42 33 -193 5 -126 10
-164 24 -185 10 -15 22 -27 27 -27 6 0 10 -13 10 -29 l0 -28 -146 2 c-80 1
-150 7 -155 12 -5 5 -12 63 -15 129 -8 190 -20 249 -56 279 -28 24 -35 25
-162 25 -73 0 -153 3 -178 6 -33 5 -46 3 -49 -7 -2 -8 -2 -104 1 -214 3 -110
4 -207 2 -215 -3 -13 -25 -15 -135 -14 l-132 1 -3 569 -2 569 377 -3 c301 -3
383 -7 405 -18z m-4564 -480 c3 -251 0 -284 -22 -284 -16 0 -116 105 -153 161
-14 22 -29 39 -33 39 -5 0 -20 21 -34 46 -34 62 -27 84 48 146 33 28 72 63 85
80 23 28 76 59 96 54 6 -2 11 -93 13 -242z"/>
<path d="M658 2431 c-53 -19 -115 -65 -129 -96 -6 -11 -16 -31 -25 -45 -8 -14
-13 -36 -12 -50 3 -21 7 -24 28 -21 14 2 136 4 273 5 276 1 263 -4 226 73 -24
50 -90 109 -146 131 -58 23 -159 24 -215 3z"/>
<path d="M5835 2430 c-61 -22 -135 -93 -153 -146 -34 -97 -35 -273 -3 -344 43
-94 86 -132 186 -165 67 -22 171 -4 240 41 32 21 91 111 98 149 3 17 10 56 15
87 13 72 -7 197 -43 266 -54 104 -217 158 -340 112z m166 -131 c60 -32 91 -96
91 -194 1 -128 -46 -192 -145 -201 -109 -11 -167 59 -167 199 0 84 19 137 65
183 20 20 35 24 80 24 31 0 65 -5 76 -11z"/>
<path d="M8092 2428 c-92 -37 -172 -136 -157 -195 5 -21 9 -22 53 -15 53 8
361 10 437 2 48 -5 50 -4 53 21 2 15 -9 46 -26 75 -65 111 -232 163 -360 112z"/>
<path d="M3775 2402 c-43 -25 -83 -71 -107 -122 -17 -38 -21 -66 -21 -170 -1
-119 0 -127 27 -175 41 -74 72 -102 139 -125 74 -24 81 -24 148 -3 105 33 154
89 182 209 21 90 21 101 -3 198 -21 87 -51 133 -116 178 -35 25 -47 27 -129
27 -67 0 -97 -4 -120 -17z m183 -128 c39 -27 66 -93 66 -159 -1 -107 -34 -162
-108 -181 -42 -10 -99 20 -125 67 -16 29 -22 57 -23 111 -2 62 2 79 25 118 14
24 34 48 44 52 32 12 98 8 121 -8z"/>
<path d="M434 1135 c-3 -6 -3 -63 -2 -126 l3 -114 170 3 c204 4 258 14 291 58
35 46 33 101 -6 141 -36 37 -62 40 -304 46 -103 2 -149 0 -152 -8z"/>
<path d="M433 560 l0 -150 183 0 c159 0 188 2 226 20 61 27 72 39 91 95 17 48
17 50 -5 95 -16 30 -36 52 -63 67 -38 21 -52 23 -236 23 l-196 0 0 -150z m282
0 c-3 -5 -26 -10 -51 -10 -28 0 -43 4 -39 10 3 6 26 10 51 10 28 0 43 -4 39
-10z"/>
<path d="M4757 1142 c-2 -4 -3 -79 -3 -167 l1 -160 135 3 c153 4 203 12 232
38 46 42 63 136 36 201 -23 54 -59 74 -141 79 -200 11 -257 12 -260 6z m226
-150 c13 -14 14 -21 5 -30 -24 -24 -78 -11 -78 18 0 32 48 40 73 12z"/>
<path d="M5843 1068 c-6 -7 -16 -31 -23 -53 -6 -22 -16 -53 -22 -70 -5 -16
-14 -45 -18 -64 -5 -18 -13 -38 -19 -44 -6 -6 -11 -20 -11 -30 0 -10 -6 -31
-13 -45 -8 -15 -21 -42 -30 -60 -29 -58 -31 -57 138 -57 148 0 155 1 155 20 0
11 -7 34 -16 50 -9 17 -20 41 -24 55 -5 14 -18 50 -30 80 -21 52 -30 84 -49
173 -10 47 -24 63 -38 45z"/>
<path d="M6800 994 l0 -151 143 4 c265 7 285 12 321 81 21 40 20 82 -1 129
-35 76 -52 80 -310 86 l-153 3 0 -152z"/>
</g>
</svg>
